<svg id="visual" viewBox="0 0 900 600" width="900" height="600" xmlns="http://www.w3.org/2000/svg" xmlns:xlink="http://www.w3.org/1999/xlink" version="1.1"><g stroke-width="1" stroke-linejoin="bevel"><path d="M422 337L357 262L413 340Z" fill="#041a26" stroke="#041a26"></path><path d="M422 337L428 244L357 262Z" fill="#041a26" stroke="#041a26"></path><path d="M357 262L331 330L413 340Z" fill="#004346" stroke="#004346"></path><path d="M422 337L484 249L428 244Z" fill="#00101c" stroke="#00101c"></path><path d="M488 379L486 355L422 337Z" fill="#003e43" stroke="#003e43"></path><path d="M422 337L486 355L484 249Z" fill="#003e43" stroke="#003e43"></path><path d="M488 379L422 337L413 340Z" fill="#003e43" stroke="#003e43"></path><path d="M344 185L335 191L357 262Z" fill="#002934" stroke="#002934"></path><path d="M357 262L293 235L331 330Z" fill="#004346" stroke="#004346"></path><path d="M344 185L357 262L428 244Z" fill="#021621" stroke="#021621"></path><path d="M464 153L344 185L428 244Z" fill="#002934" stroke="#002934"></path><path d="M335 191L293 235L357 262Z" fill="#00101c" stroke="#00101c"></path><path d="M344 185L334 186L335 191Z" fill="#004346" stroke="#004346"></path><path d="M335 191L334 186L293 235Z" fill="#002934" stroke="#002934"></path><path d="M385 441L488 379L413 340Z" fill="#041a26" stroke="#041a26"></path><path d="M486 355L536 327L484 249Z" fill="#021621" stroke="#021621"></path><path d="M488 379L536 327L486 355Z" fill="#004346" stroke="#004346"></path><path d="M507 181L464 153L484 249Z" fill="#041a26" stroke="#041a26"></path><path d="M484 249L464 153L428 244Z" fill="#00101c" stroke="#00101c"></path><path d="M357 50L261 97L334 186Z" fill="#002e38" stroke="#002e38"></path><path d="M638 211L507 181L484 249Z" fill="#00333c" stroke="#00333c"></path><path d="M331 330L385 441L413 340Z" fill="#021621" stroke="#021621"></path><path d="M232 416L284 410L184 362Z" fill="#002e38" stroke="#002e38"></path><path d="M331 330L284 410L385 441Z" fill="#021621" stroke="#021621"></path><path d="M284 410L322 456L385 441Z" fill="#004346" stroke="#004346"></path><path d="M464 476L488 379L385 441Z" fill="#002e38" stroke="#002e38"></path><path d="M464 476L503 444L488 379Z" fill="#021621" stroke="#021621"></path><path d="M570 428L586 339L536 327Z" fill="#004346" stroke="#004346"></path><path d="M570 428L536 327L488 379Z" fill="#00101c" stroke="#00101c"></path><path d="M536 327L638 211L484 249Z" fill="#012430" stroke="#012430"></path><path d="M464 493L464 476L385 441Z" fill="#002e38" stroke="#002e38"></path><path d="M196 163L213 231L293 235Z" fill="#012430" stroke="#012430"></path><path d="M293 235L182 307L331 330Z" fill="#004346" stroke="#004346"></path><path d="M507 181L476 99L464 153Z" fill="#002934" stroke="#002934"></path><path d="M464 153L357 50L344 185Z" fill="#003e43" stroke="#003e43"></path><path d="M334 186L196 163L293 235Z" fill="#004346" stroke="#004346"></path><path d="M567 115L476 99L507 181Z" fill="#00333c" stroke="#00333c"></path><path d="M284 410L243 485L322 456Z" fill="#004346" stroke="#004346"></path><path d="M184 362L284 410L331 330Z" fill="#002e38" stroke="#002e38"></path><path d="M342 552L464 493L385 441Z" fill="#002e38" stroke="#002e38"></path><path d="M464 476L528 503L503 444Z" fill="#00333c" stroke="#00333c"></path><path d="M503 444L570 428L488 379Z" fill="#00333c" stroke="#00333c"></path><path d="M528 503L570 428L503 444Z" fill="#00333c" stroke="#00333c"></path><path d="M213 231L182 307L293 235Z" fill="#003840" stroke="#003840"></path><path d="M182 307L184 362L331 330Z" fill="#003e43" stroke="#003e43"></path><path d="M357 50L334 186L344 185Z" fill="#031f2b" stroke="#031f2b"></path><path d="M213 231L134 264L182 307Z" fill="#002934" stroke="#002934"></path><path d="M626 173L567 115L507 181Z" fill="#031f2b" stroke="#031f2b"></path><path d="M261 97L196 163L334 186Z" fill="#00333c" stroke="#00333c"></path><path d="M353 0L357 50L473 0Z" fill="#002934" stroke="#002934"></path><path d="M476 99L357 50L464 153Z" fill="#00333c" stroke="#00333c"></path><path d="M464 493L528 503L464 476Z" fill="#021621" stroke="#021621"></path><path d="M586 339L638 211L536 327Z" fill="#00101c" stroke="#00101c"></path><path d="M673 333L638 211L586 339Z" fill="#00101c" stroke="#00101c"></path><path d="M636 410L636 379L570 428Z" fill="#002e38" stroke="#002e38"></path><path d="M570 428L636 379L586 339Z" fill="#031f2b" stroke="#031f2b"></path><path d="M232 416L243 485L284 410Z" fill="#031f2b" stroke="#031f2b"></path><path d="M322 456L342 552L385 441Z" fill="#012430" stroke="#012430"></path><path d="M464 493L517 600L528 503Z" fill="#012430" stroke="#012430"></path><path d="M123 488L243 485L232 416Z" fill="#00101c" stroke="#00101c"></path><path d="M638 211L626 173L507 181Z" fill="#003840" stroke="#003840"></path><path d="M687 97L560 89L567 115Z" fill="#00333c" stroke="#00333c"></path><path d="M567 115L560 89L476 99Z" fill="#003840" stroke="#003840"></path><path d="M599 521L636 410L570 428Z" fill="#041a26" stroke="#041a26"></path><path d="M636 379L673 333L586 339Z" fill="#002934" stroke="#002934"></path><path d="M230 0L228 87L261 97Z" fill="#002e38" stroke="#002e38"></path><path d="M261 97L228 87L196 163Z" fill="#002934" stroke="#002934"></path><path d="M140 185L213 231L196 163Z" fill="#004346" stroke="#004346"></path><path d="M140 185L134 264L213 231Z" fill="#003e43" stroke="#003e43"></path><path d="M182 307L112 314L184 362Z" fill="#041a26" stroke="#041a26"></path><path d="M184 362L124 417L232 416Z" fill="#031f2b" stroke="#031f2b"></path><path d="M278 533L342 552L322 456Z" fill="#00333c" stroke="#00333c"></path><path d="M243 485L278 533L322 456Z" fill="#004346" stroke="#004346"></path><path d="M678 416L673 333L636 379Z" fill="#00333c" stroke="#00333c"></path><path d="M129 115L140 185L196 163Z" fill="#00333c" stroke="#00333c"></path><path d="M638 211L662 183L626 173Z" fill="#00333c" stroke="#00333c"></path><path d="M626 173L687 97L567 115Z" fill="#003840" stroke="#003840"></path><path d="M751 182L662 183L638 211Z" fill="#002934" stroke="#002934"></path><path d="M76 309L112 314L134 264Z" fill="#002934" stroke="#002934"></path><path d="M134 264L112 314L182 307Z" fill="#012430" stroke="#012430"></path><path d="M243 485L204 527L278 533Z" fill="#031f2b" stroke="#031f2b"></path><path d="M473 0L357 50L476 99Z" fill="#002e38" stroke="#002e38"></path><path d="M357 50L338 0L261 97Z" fill="#031f2b" stroke="#031f2b"></path><path d="M353 0L338 0L357 50Z" fill="#012430" stroke="#012430"></path><path d="M526 0L476 99L560 89Z" fill="#041a26" stroke="#041a26"></path><path d="M526 0L473 0L476 99Z" fill="#021621" stroke="#021621"></path><path d="M671 528L678 416L636 410Z" fill="#031f2b" stroke="#031f2b"></path><path d="M636 410L678 416L636 379Z" fill="#041a26" stroke="#041a26"></path><path d="M528 503L599 521L570 428Z" fill="#003e43" stroke="#003e43"></path><path d="M584 600L599 521L528 503Z" fill="#00333c" stroke="#00333c"></path><path d="M96 353L124 417L184 362Z" fill="#002934" stroke="#002934"></path><path d="M123 488L204 527L243 485Z" fill="#031f2b" stroke="#031f2b"></path><path d="M315 600L362 600L342 552Z" fill="#002934" stroke="#002934"></path><path d="M112 314L96 353L184 362Z" fill="#021621" stroke="#021621"></path><path d="M76 309L96 353L112 314Z" fill="#00333c" stroke="#00333c"></path><path d="M315 600L342 552L278 533Z" fill="#00333c" stroke="#00333c"></path><path d="M342 552L444 600L464 493Z" fill="#031f2b" stroke="#031f2b"></path><path d="M362 600L444 600L342 552Z" fill="#004346" stroke="#004346"></path><path d="M599 0L526 0L560 89Z" fill="#041a26" stroke="#041a26"></path><path d="M216 600L315 600L278 533Z" fill="#031f2b" stroke="#031f2b"></path><path d="M125 0L129 115L228 87Z" fill="#041a26" stroke="#041a26"></path><path d="M228 87L129 115L196 163Z" fill="#003840" stroke="#003840"></path><path d="M72 234L76 309L134 264Z" fill="#004346" stroke="#004346"></path><path d="M72 234L134 264L140 185Z" fill="#00333c" stroke="#00333c"></path><path d="M90 502L123 488L46 438Z" fill="#031f2b" stroke="#031f2b"></path><path d="M444 600L517 600L464 493Z" fill="#004346" stroke="#004346"></path><path d="M64 122L72 234L140 185Z" fill="#041a26" stroke="#041a26"></path><path d="M338 0L230 0L261 97Z" fill="#002e38" stroke="#002e38"></path><path d="M671 528L636 410L599 521Z" fill="#041a26" stroke="#041a26"></path><path d="M671 528L715 411L678 416Z" fill="#002934" stroke="#002934"></path><path d="M678 416L715 411L673 333Z" fill="#041a26" stroke="#041a26"></path><path d="M751 182L712 107L662 183Z" fill="#041a26" stroke="#041a26"></path><path d="M124 417L123 488L232 416Z" fill="#003e43" stroke="#003e43"></path><path d="M204 527L216 600L278 533Z" fill="#041a26" stroke="#041a26"></path><path d="M123 488L124 417L46 438Z" fill="#00333c" stroke="#00333c"></path><path d="M712 107L687 97L662 183Z" fill="#002e38" stroke="#002e38"></path><path d="M662 183L687 97L626 173Z" fill="#031f2b" stroke="#031f2b"></path><path d="M687 97L599 0L560 89Z" fill="#021621" stroke="#021621"></path><path d="M584 600L671 528L599 521Z" fill="#031f2b" stroke="#031f2b"></path><path d="M517 600L584 600L528 503Z" fill="#00101c" stroke="#00101c"></path><path d="M751 182L638 211L673 333Z" fill="#004346" stroke="#004346"></path><path d="M687 97L717 0L599 0Z" fill="#00101c" stroke="#00101c"></path><path d="M138 600L216 600L204 527Z" fill="#041a26" stroke="#041a26"></path><path d="M788 334L751 182L673 333Z" fill="#021621" stroke="#021621"></path><path d="M129 115L64 122L140 185Z" fill="#002934" stroke="#002934"></path><path d="M0 395L96 353L76 309Z" fill="#00101c" stroke="#00101c"></path><path d="M39 55L64 122L129 115Z" fill="#041a26" stroke="#041a26"></path><path d="M46 438L124 417L96 353Z" fill="#002934" stroke="#002934"></path><path d="M123 488L138 600L204 527Z" fill="#003840" stroke="#003840"></path><path d="M0 284L76 309L72 234Z" fill="#002934" stroke="#002934"></path><path d="M0 395L46 438L96 353Z" fill="#002e38" stroke="#002e38"></path><path d="M776 109L719 72L712 107Z" fill="#004346" stroke="#004346"></path><path d="M712 107L719 72L687 97Z" fill="#004346" stroke="#004346"></path><path d="M794 414L788 334L715 411Z" fill="#00333c" stroke="#00333c"></path><path d="M715 411L788 334L673 333Z" fill="#021621" stroke="#021621"></path><path d="M230 0L125 0L228 87Z" fill="#003840" stroke="#003840"></path><path d="M0 236L0 284L72 234Z" fill="#031f2b" stroke="#031f2b"></path><path d="M0 179L72 234L64 122Z" fill="#003e43" stroke="#003e43"></path><path d="M0 179L0 236L72 234Z" fill="#00101c" stroke="#00101c"></path><path d="M70 600L138 600L90 502Z" fill="#041a26" stroke="#041a26"></path><path d="M90 502L138 600L123 488Z" fill="#002934" stroke="#002934"></path><path d="M824 229L794 171L751 182Z" fill="#003840" stroke="#003840"></path><path d="M751 182L776 109L712 107Z" fill="#041a26" stroke="#041a26"></path><path d="M771 487L794 414L715 411Z" fill="#012430" stroke="#012430"></path><path d="M788 334L824 229L751 182Z" fill="#002934" stroke="#002934"></path><path d="M0 284L0 395L76 309Z" fill="#002e38" stroke="#002e38"></path><path d="M46 438L0 466L90 502Z" fill="#021621" stroke="#021621"></path><path d="M794 171L776 109L751 182Z" fill="#021621" stroke="#021621"></path><path d="M39 55L0 179L64 122Z" fill="#021621" stroke="#021621"></path><path d="M696 600L720 558L671 528Z" fill="#00333c" stroke="#00333c"></path><path d="M671 528L771 487L715 411Z" fill="#002934" stroke="#002934"></path><path d="M720 558L771 487L671 528Z" fill="#002e38" stroke="#002e38"></path><path d="M858 263L824 229L788 334Z" fill="#00101c" stroke="#00101c"></path><path d="M794 171L831 96L776 109Z" fill="#012430" stroke="#012430"></path><path d="M584 600L696 600L671 528Z" fill="#00333c" stroke="#00333c"></path><path d="M803 560L840 449L771 487Z" fill="#041a26" stroke="#041a26"></path><path d="M764 0L717 0L719 72Z" fill="#012430" stroke="#012430"></path><path d="M719 72L717 0L687 97Z" fill="#041a26" stroke="#041a26"></path><path d="M125 0L39 55L129 115Z" fill="#003e43" stroke="#003e43"></path><path d="M0 395L0 466L46 438Z" fill="#004346" stroke="#004346"></path><path d="M0 532L70 600L90 502Z" fill="#00333c" stroke="#00333c"></path><path d="M125 0L50 0L39 55Z" fill="#012430" stroke="#012430"></path><path d="M39 55L0 35L0 179Z" fill="#003840" stroke="#003840"></path><path d="M900 342L858 263L788 334Z" fill="#041a26" stroke="#041a26"></path><path d="M900 161L831 96L794 171Z" fill="#041a26" stroke="#041a26"></path><path d="M900 342L788 334L794 414Z" fill="#00101c" stroke="#00101c"></path><path d="M831 96L764 0L776 109Z" fill="#012430" stroke="#012430"></path><path d="M776 109L764 0L719 72Z" fill="#003840" stroke="#003840"></path><path d="M803 560L771 487L720 558Z" fill="#003840" stroke="#003840"></path><path d="M771 487L840 449L794 414Z" fill="#031f2b" stroke="#031f2b"></path><path d="M0 466L0 532L90 502Z" fill="#012430" stroke="#012430"></path><path d="M900 185L794 171L824 229Z" fill="#003e43" stroke="#003e43"></path><path d="M50 0L0 35L39 55Z" fill="#031f2b" stroke="#031f2b"></path><path d="M791 600L803 560L720 558Z" fill="#041a26" stroke="#041a26"></path><path d="M50 0L0 0L0 35Z" fill="#012430" stroke="#012430"></path><path d="M696 600L791 600L720 558Z" fill="#003840" stroke="#003840"></path><path d="M900 412L794 414L840 449Z" fill="#031f2b" stroke="#031f2b"></path><path d="M900 412L900 342L794 414Z" fill="#00333c" stroke="#00333c"></path><path d="M858 263L900 185L824 229Z" fill="#012430" stroke="#012430"></path><path d="M900 412L840 449L900 455Z" fill="#012430" stroke="#012430"></path><path d="M0 532L0 600L70 600Z" fill="#012430" stroke="#012430"></path><path d="M900 342L900 185L858 263Z" fill="#00101c" stroke="#00101c"></path><path d="M831 96L851 0L764 0Z" fill="#031f2b" stroke="#031f2b"></path><path d="M900 455L840 449L900 516Z" fill="#00101c" stroke="#00101c"></path><path d="M900 185L900 161L794 171Z" fill="#00101c" stroke="#00101c"></path><path d="M791 600L819 600L803 560Z" fill="#041a26" stroke="#041a26"></path><path d="M900 516L840 449L803 560Z" fill="#00333c" stroke="#00333c"></path><path d="M900 67L851 0L831 96Z" fill="#002e38" stroke="#002e38"></path><path d="M900 161L900 67L831 96Z" fill="#021621" stroke="#021621"></path><path d="M900 600L900 516L803 560Z" fill="#003e43" stroke="#003e43"></path><path d="M900 67L900 0L851 0Z" fill="#002e38" stroke="#002e38"></path><path d="M819 600L900 600L803 560Z" fill="#003840" stroke="#003840"></path></g></svg>