<?xml version="1.0" encoding="UTF-8" standalone="no"?>
<svg
   id="visual"
   viewBox="0 0 900 60"
   width="900"
   height="60"
   version="1.1"
   sodipodi:docname="footer-bg.svg"
   inkscape:version="1.4.2 (ebf0e94, 2025-05-08)"
   xmlns:inkscape="http://www.inkscape.org/namespaces/inkscape"
   xmlns:sodipodi="http://sodipodi.sourceforge.net/DTD/sodipodi-0.dtd"
   xmlns="http://www.w3.org/2000/svg"
   xmlns:svg="http://www.w3.org/2000/svg">
  <defs
     id="defs3" />
  <sodipodi:namedview
     id="namedview3"
     pagecolor="#ffffff"
     bordercolor="#000000"
     borderopacity="0.25"
     inkscape:showpageshadow="2"
     inkscape:pageopacity="0.0"
     inkscape:pagecheckerboard="0"
     inkscape:deskcolor="#d1d1d1"
     inkscape:zoom="7.9733333"
     inkscape:cx="517.66304"
     inkscape:cy="53.867057"
     inkscape:window-width="1044"
     inkscape:window-height="1039"
     inkscape:window-x="8"
     inkscape:window-y="29"
     inkscape:window-maximized="1"
     inkscape:current-layer="visual" />
  <path
     d="M 0,0 12.5,1.2 C 25,2.3 50,4.7 75,8.5 c 25,3.8 50,9.2 75,9.7 25,0.5 50,-3.9 75,-5 25,-1.2 50,0.8 75,1.8 25,1 50,1 75,2 25,1 50,3 75,1.7 25,-1.4 50,-6 75,-9.5 25,-3.5 50,-5.9 75,-7 25,-1.2 50,-1.2 75,0 25,1.1 50,3.5 75,3.5 25,0 50,-2.4 75,-2 25,0.3 50,3.3 62.5,4.8 L 900,10 V 60 H 887.5 C 875,60 850,60 825,60 c -25,0 -50,0 -75,0 -25,0 -50,0 -75,0 -25,0 -50,0 -75,0 -25,0 -50,0 -75,0 -25,0 -50,0 -75,0 -25,0 -50,0 -75,0 -25,0 -50,0 -75,0 -25,0 -50,0 -75,0 -25,0 -50,0 -75,0 -25,0 -50,0 -75,0 -25,0 -50,0 -62.5,0 H 0 Z"
     fill="#043b2f"
     id="path1" />
  <path
     d="m 0,24 12.5,1.2 C 25,26.3 50,28.7 75,29.3 c 25,0.7 50,-0.3 75,-0.5 25,-0.1 50,0.5 75,0 25,-0.5 50,-2.1 75,-3.6 25,-1.5 50,-2.9 75,-3.9 25,-1 50,-1.6 75,-2 25,-0.3 50,-0.3 75,2 25,2.4 50,7 75,8.7 25,1.7 50,0.3 75,-1 25,-1.3 50,-2.7 75,-2.3 25,0.3 50,2.3 75,0.6 25,-1.6 50,-7 62.5,-9.6 L 900,15 V 60 H 887.5 C 875,60 850,60 825,60 c -25,0 -50,0 -75,0 -25,0 -50,0 -75,0 -25,0 -50,0 -75,0 -25,0 -50,0 -75,0 -25,0 -50,0 -75,0 -25,0 -50,0 -75,0 -25,0 -50,0 -75,0 -25,0 -50,0 -75,0 -25,0 -50,0 -75,0 -25,0 -50,0 -75,0 -25,0 -50,0 -62.5,0 H 0 Z"
     fill="#27615f"
     id="path2" />
  <path
     d="m 0,50.877926 12.5,-2 c 12.5,-2 37.5,-6 62.5,-8 25,-2 50,-2 75,-0.2 25,1.9 50,5.5 75,6.7 25,1.2 50,-0.2 75,-1 25,-0.8 50,-1.2 75,-1 25,0.2 50,0.8 75,0 25,-0.8 50,-3.2 75,-5.3 25,-2.2 50,-4.2 75,-4.7 25,-0.5 50,0.5 75,0.8 25,0.4 50,0 75,-0.5 25,-0.5 50,-1.1 75,0.4 25,1.5 50,5.1 62.5,7 l 12.5,1.8 v 16 h -12.5 c -12.5,0 -37.5,0 -62.5,0 -25,0 -50,0 -75,0 -25,0 -50,0 -75,0 -25,0 -50,0 -75,0 -25,0 -50,0 -75,0 -25,0 -50,0 -75,0 -25,0 -50,0 -75,0 -25,0 -50,0 -75,0 -25,0 -50,0 -75,0 -25,0 -50,0 -75,0 -25,0 -50,0 -75,0 -25,0 -50,0 -62.5,0 H 0 Z"
     fill="#508991"
     id="path3" />
</svg>
